{"title":"Disgrace-AC3-5,1-DVDRip[Eng]2008","uid":5152490,"size":1462713094,"categoryP":"video","categoryS":"movies","magnet":"?xt=urn:btih:d2376f2dd0220aabd92d074f2205685c5fb46861&amp;dn=Disgrace-AC3-5%2C1-DVDRip%5BEng%5D2008&amp;tr=udp%3A%2F%2Ftracker.openbittorrent.com%3A80&amp;tr=udp%3A%2F%2Fopen.demonii.com%3A1337&amp;tr=udp%3A%2F%2Ftracker.coppersurfer.tk%3A6969&amp;tr=udp%3A%2F%2Fexodus.desync.com%3A6969","seeders":0,"leechers":1,"uploader":"FatFreddy31","files":-1,"time":1257638373,"description":" &lt;a href=&quot;http://www.imdb.com/title/tt0445953/&quot; rel=&quot;nofollow&quot; target=&quot;_NEW&quot;&gt;http://www.imdb.com/title/tt0445953/&lt;/a&gt;\n\nUser Rating:6.8/10 - 665 votes\n\nDrama\n\nDirector:Steve Jacobs\n\nCast:Paula Arundell/John Malkovich/Scott Cooper/Eriq Ebouaney, and others.\n\nPlot:\nAfter having an affair with a student, a Cape Town professor moves to the Eastern \nCape, where he gets caught up in a mess of post-apartheid politics.Based on the award-winning novel by J.M. Coetzee, we follow a middle-aged poetry lecturer, who has to resign his post after an affair with a student. He retreats to his daughter's farm in the country, where life is very different. A vicious assault leads him and his daughter to examine the problems in their relationship...\n\nInfo:\n\nGeneral\nComplete name                    : Disgrace-AC3-5,1-DVDRip[Eng]2008.avi\nFormat                           : AVI\nFormat/Info                      : Audio Video Interleave\nFile size                        : 1.36 GiB\nDuration                         : 1h 53mn\nOverall bit rate                 : 1 718 Kbps\nWriting application              : VirtualDubMod 1.5.4.1 (build 2178/release)\nWriting library                  : VirtualDubMod build 2178/release\n\nVideo\nID                               : 0\nFormat                           : MPEG-4 Visual\nFormat profile                   : Simple@L3\nFormat settings, BVOP            : No\nFormat settings, QPel            : No\nFormat settings, GMC             : No warppoints\nFormat settings, Matrix          : Default (H.263)\nCodec ID                         : XVID\nCodec ID/Hint                    : XviD\nDuration                         : 1h 53mn\nBit rate                         : 1 260 Kbps\nWidth                            : 640 pixels\nHeight                           : 272 pixels\nDisplay aspect ratio             : 2.35:1\nFrame rate                       : 25.000 fps\nResolution                       : 24 bits\nColorimetry                      : 4:2:0\nScan type                        : Progressive\nBits/(Pixel*Frame)               : 0.289\nStream size                      : 1 023 MiB (73%)\nWriting library                  : XviD 1.1.2 (UTC 2006-11-01)\n\nAudio\nID                               : 1\nFormat                           : AC-3\nFormat/Info                      : Audio Coding 3\nCodec ID                         : 2000\nDuration                         : 1h 53mn\nBit rate mode                    : Constant\nBit rate                         : 448 Kbps\nChannel(s)                       : 6 channels\nChannel positions                : Front: L C R, Surround: L R, LFE\nSampling rate                    : 48.0 KHz\nStream size                      : 364 MiB (26%)\nAlignment                        : Split accross interleaves\nInterleave, duration             : 40 ms (1.00 video frame)\nInterleave, preload duration     : 500 ms\n\nEnjoy..","torrent":{"xt":"urn:btih:d2376f2dd0220aabd92d074f2205685c5fb46861","amp;dn":"Disgrace-AC3-5%2C1-DVDRip%5BEng%5D2008","amp;tr":["udp%3A%2F%2Ftracker.openbittorrent.com%3A80","udp%3A%2F%2Fopen.demonii.com%3A1337","udp%3A%2F%2Ftracker.coppersurfer.tk%3A6969","udp%3A%2F%2Fexodus.desync.com%3A6969"],"infoHash":"d2376f2dd0220aabd92d074f2205685c5fb46861","infoHashBuffer":{"type":"Buffer","data":[210,55,111,45,208,34,10,171,217,45,7,79,34,5,104,92,95,180,104,97]},"announce":[],"urlList":[]}}